<?xml version="1.0" encoding="UTF-8" standalone="no"?>
<svg width="15px" height="15px" viewBox="0 0 15 15" version="1.1" xmlns="http://www.w3.org/2000/svg" xmlns:xlink="http://www.w3.org/1999/xlink">
    <!-- Generator: Sketch 41.2 (35397) - http://www.bohemiancoding.com/sketch -->
    <title>ClearDrk-sym</title>
    <desc>Created with Sketch.</desc>
    <defs></defs>
    <g id="Symbols" stroke="none" stroke-width="1" fill="none" fill-rule="evenodd">
        <g id="ClearDrk-sym">
            <g id="Group-18" transform="translate(0.823491, 0.500000)">
                <path d="M10.1713396,3.53766744 C9.99928471,3.36561254 9.73164376,3.36561254 9.55958886,3.53766744 L6.85450352,6.24275278 L4.14941819,3.53766744 C3.97736329,3.36561254 3.70972234,3.36561254 3.53766744,3.53766744 C3.36561254,3.70972234 3.36561254,3.97736329 3.53766744,4.14941819 L6.24275278,6.85450352 L3.53766744,9.55958886 C3.36561254,9.73164376 3.36561254,9.99928471 3.53766744,10.1713396 C3.62369489,10.2573671 3.72883955,10.2956015 3.84354282,10.2956015 C3.95824608,10.2956015 4.06339074,10.2573671 4.14941819,10.1713396 L6.85450352,7.46625427 L9.55958886,10.1713396 C9.64561631,10.2573671 9.75076097,10.2956015 9.86546423,10.2956015 C9.9801675,10.2956015 10.0853122,10.2573671 10.1713396,10.1713396 C10.3433945,9.99928471 10.3433945,9.73164376 10.1713396,9.55958886 L7.46625427,6.85450352 L10.1713396,4.14941819 C10.3338359,3.97736329 10.3338359,3.70972234 10.1713396,3.53766744 Z" id="Shape" fill="#2C3E50"></path>
                <circle id="Oval" stroke="#2C3E50" cx="6.73948617" cy="6.73948617" r="6.73948617"></circle>
            </g>
        </g>
    </g>
</svg>