<?xml version="1.0" encoding="UTF-8" standalone="no"?>
<svg width="9px" height="9px" viewBox="0 0 9 9" version="1.1" xmlns="http://www.w3.org/2000/svg" xmlns:xlink="http://www.w3.org/1999/xlink">
    <!-- Generator: Sketch 41.2 (35397) - http://www.bohemiancoding.com/sketch -->
    <title>CrossBlk-sym</title>
    <desc>Created with Sketch.</desc>
    <defs></defs>
    <g id="Symbols" stroke="none" stroke-width="1" fill="none" fill-rule="evenodd">
        <g id="CrossBlk-sym" fill="#000000">
            <path d="M8.55391069,0.632205433 C8.35403977,0.432334514 8.04312945,0.432334514 7.84325853,0.632205433 L4.70084352,3.77462044 L1.55842851,0.632205433 C1.35855759,0.432334514 1.04764727,0.432334514 0.847776353,0.632205433 C0.647905434,0.832076353 0.647905434,1.14298667 0.847776353,1.34285759 L3.99019136,4.4852726 L0.847776353,7.62768761 C0.647905434,7.82755853 0.647905434,8.13846885 0.847776353,8.33833977 C0.947711813,8.43827523 1.06985515,8.48269099 1.20310243,8.48269099 C1.33634971,8.48269099 1.45849305,8.43827523 1.55842851,8.33833977 L4.70084352,5.19592476 L7.84325853,8.33833977 C7.94319399,8.43827523 8.06533733,8.48269099 8.19858461,8.48269099 C8.33183189,8.48269099 8.45397523,8.43827523 8.55391069,8.33833977 C8.75378161,8.13846885 8.75378161,7.82755853 8.55391069,7.62768761 L5.41149568,4.4852726 L8.55391069,1.34285759 C8.74267767,1.14298667 8.74267767,0.832076353 8.55391069,0.632205433 Z" id="Shape-Copy-7"></path>
        </g>
    </g>
</svg>