<?xml version="1.0" encoding="UTF-8" standalone="no"?>
<svg width="22px" height="15px" viewBox="0 0 22 15" version="1.1" xmlns="http://www.w3.org/2000/svg" xmlns:xlink="http://www.w3.org/1999/xlink">
    <!-- Generator: Sketch 41.2 (35397) - http://www.bohemiancoding.com/sketch -->
    <title>EyeWht-sym</title>
    <desc>Created with Sketch.</desc>
    <defs></defs>
    <g id="Symbols" stroke="none" stroke-width="1" fill="none" fill-rule="evenodd">
        <g id="EyeWht-sym" fill="#FFFFFF">
            <path d="M21.0810041,7.51317077 C21.0810041,7.51317077 16.9702949,14.6078246 10.8704935,14.6078246 C4.7704879,14.6078246 0.661003975,7.51317077 0.661003975,7.51317077 C0.661003975,7.51317077 4.7704879,0.392175352 10.8704935,0.392175352 C16.9702949,0.392175352 21.0810041,7.51317077 21.0810041,7.51317077 Z M15.8708931,7.51317077 C15.8708931,4.76446205 13.6192022,2.51317955 10.8704935,2.51317955 C8.1217848,2.51317955 5.8700939,4.76425785 5.8700939,7.51317077 C5.8700939,10.2622879 8.1217848,12.5135704 10.8704935,12.5135704 C13.6192022,12.5135704 15.8708931,10.2624921 15.8708931,7.51317077 Z M10.8704935,5.26209247 C9.64040501,5.26209247 8.64514416,6.30901541 8.64514416,7.51317077 C8.64514416,8.74366767 9.64040501,9.73852012 10.8704935,9.73852012 C12.0752615,9.73852012 13.1219802,8.74366767 13.1219802,7.51317077 C13.1219802,6.30901541 12.0752615,5.26209247 10.8704935,5.26209247 Z" id="Shape"></path>
        </g>
    </g>
</svg>