<?xml version="1.0" encoding="UTF-8" standalone="no"?>
<svg width="66px" height="66px" viewBox="0 0 66 66" version="1.1" xmlns="http://www.w3.org/2000/svg" xmlns:xlink="http://www.w3.org/1999/xlink">
    <!-- Generator: Sketch 41.2 (35397) - http://www.bohemiancoding.com/sketch -->
    <title>Guest</title>
    <desc>Created with Sketch.</desc>
    <defs></defs>
    <g id="Symbols" stroke="none" stroke-width="1" fill="none" fill-rule="evenodd">
        <g id="Guest" fill="#00FFFA">
            <g id="Group" transform="translate(0.500000, 0.500000)">
                <g id="Group-2">
                    <path d="M32.5582698,0 C14.6056398,0 0,14.6056398 0,32.5582698 C0,50.5108997 14.6056398,65.1165395 32.5582698,65.1165395 C50.5108997,65.1165395 65.1165395,50.5108997 65.1165395,32.5582698 C65.1165395,14.6056398 50.5108997,0 32.5582698,0 Z M32.5582698,62.6109998 C15.9875575,62.6109998 2.50553974,49.128982 2.50553974,32.5582698 C2.50553974,15.9875575 15.9875575,2.50553974 32.5582698,2.50553974 C49.128982,2.50553974 62.6109998,15.9875575 62.6109998,32.5582698 C62.6109998,49.128982 49.128982,62.6109998 32.5582698,62.6109998 Z" id="Shape"></path>
                    <path d="M32.5604403,36.0275343 C39.5033104,36.0275343 44.223536,30.3964006 44.223536,23.4513599 C44.223536,16.5048722 39.5033104,10.8759091 32.5604403,10.8759091 C25.6132291,10.8759091 20.8930035,16.5048722 20.8930035,23.4513599 C20.8930035,30.3964006 25.6132291,36.0275343 32.5604403,36.0275343 Z" id="Shape"></path>
                    <path d="M41.9799095,35.2020013 C39.4895636,37.4383926 36.2293955,38.7602584 32.5597168,38.7602584 C28.888591,38.7602584 25.6262524,37.4383926 23.1359065,35.2020013 C17.2124719,38.4411873 13.1231533,44.5903592 12.8134879,51.7408788 C17.8231204,56.8952146 24.8209778,60.1076306 32.5582698,60.1076306 C40.2955617,60.1076306 47.2934191,56.8952146 52.3044986,51.7416023 C51.9948333,44.5903592 47.903344,38.4411873 41.9799095,35.2020013 Z" id="Shape"></path>
                </g>
            </g>
        </g>
    </g>
</svg>