<?xml version="1.0" encoding="UTF-8" standalone="no"?>
<svg width="19px" height="25px" viewBox="0 0 19 25" version="1.1" xmlns="http://www.w3.org/2000/svg" xmlns:xlink="http://www.w3.org/1999/xlink">
    <!-- Generator: Sketch 41.2 (35397) - http://www.bohemiancoding.com/sketch -->
    <title>Marker-sym</title>
    <desc>Created with Sketch.</desc>
    <defs></defs>
    <g id="Symbols" stroke="none" stroke-width="1" fill="none" fill-rule="evenodd">
        <g id="Marker-sym" fill="#E74C3C">
            <g id="Group-3-Copy" transform="translate(0.823491, 0.932426)">
                <g id="Group-12" transform="translate(0.472066, 0.000000)">
                    <path d="M16.2447263,5.163657 C15.8186222,4.15668088 15.2093957,3.25248956 14.4327994,2.47668082 C13.6565968,1.70008445 12.7524055,1.09046417 11.7454294,0.664753891 C10.7030102,0.223684959 9.59561215,0 8.45513391,0 C7.31347423,0 6.20607616,0.223684959 5.163657,0.664753891 C4.15707469,1.09085798 3.25248956,1.70008445 2.47668082,2.47668082 C1.70008445,3.25248956 1.09046417,4.15707469 0.664753891,5.163657 C0.223291147,6.20646998 0,7.31386805 0,8.4547401 C0,10.3710271 1.35589316,13.459691 4.02987356,17.6340934 C5.99066125,20.6947968 7.97901575,23.2561471 7.99870633,23.2817448 L8.45513391,23.8677364 L8.91038006,23.2817448 C8.93046445,23.2565409 10.9192128,20.6951906 12.8796066,17.6340934 C15.553587,13.459691 16.9094802,10.3710271 16.9094802,8.4547401 C16.9094802,7.31386805 16.686189,6.20686379 16.2447263,5.163657 Z M8.4547401,11.3543745 C6.64517604,11.3543745 5.1774404,9.88703269 5.1774404,8.07707482 C5.1774404,6.26711695 6.64517604,4.79977513 8.4547401,4.79977513 C10.2650918,4.79977513 11.731646,6.26711695 11.731646,8.07707482 C11.731646,9.88703269 10.264698,11.3543745 8.4547401,11.3543745 Z" id="Shape"></path>
                </g>
            </g>
        </g>
    </g>
</svg>