<?xml version="1.0" encoding="UTF-8" standalone="no"?>
<svg width="15px" height="15px" viewBox="0 0 15 15" version="1.1" xmlns="http://www.w3.org/2000/svg" xmlns:xlink="http://www.w3.org/1999/xlink">
    <!-- Generator: Sketch 41.2 (35397) - http://www.bohemiancoding.com/sketch -->
    <title>ResetDrk-sym</title>
    <desc>Created with Sketch.</desc>
    <defs></defs>
    <g id="Symbols" stroke="none" stroke-width="1" fill="none" fill-rule="evenodd">
        <g id="ResetDrk-sym" fill="#2C3E50">
            <path d="M10.652011,7.36161235 C10.652011,8.29680196 10.2878595,9.1763033 9.62597794,9.83725151 C8.96502972,10.499133 8.08552839,10.8632846 7.15033878,10.8632846 C6.21514917,10.8632846 5.33580338,10.499133 4.67469962,9.83725151 C4.23697115,9.40076747 3.93364118,8.8673734 3.77528739,8.28653541 L5.00976256,8.28715762 C5.12487239,8.55393244 5.2878928,8.80001859 5.49991267,9.01219401 C6.3811251,9.89433977 7.92001911,9.89433977 8.80092044,9.01219401 C9.24222664,8.57166557 9.48473506,7.98507209 9.48473506,7.36161235 C9.48473506,6.73815261 9.24207109,6.15218135 8.80092044,5.71103069 C8.36054755,5.27003559 7.77379852,5.02721607 7.15049433,5.02721607 C6.52719015,5.02721607 5.94059666,5.27003559 5.50006822,5.71103069 C5.42493573,5.78569653 5.36458084,5.86954004 5.30173709,5.95229468 L6.08308397,5.95229468 L6.08308397,7.11941504 L3.26538194,7.11941504 L3.26538194,4.30171302 L4.43188009,4.30171302 L4.43188009,5.12692607 L4.6740774,4.88519542 L4.67469962,4.88581764 C5.33580338,4.22424721 6.21514917,3.85994015 7.15033878,3.85994015 C8.08552839,3.85994015 8.96502972,4.22409166 9.62597794,4.88581764 C10.2878595,5.5469214 10.652011,6.42642274 10.652011,7.36161235 Z M12.1023949,12.3135129 C14.8329867,9.58307656 14.8329867,5.14014815 12.1023949,2.40955626 C10.7795651,1.08688207 9.02071799,0.358423499 7.15033878,0.358423499 C5.27995956,0.358423499 3.52111243,1.08688207 2.19828269,2.40971182 C-0.532309194,5.1403037 -0.532309194,9.58323211 2.19828269,12.3136684 C3.52111243,13.6363426 5.27995956,14.3648012 7.15033878,14.3648012 C9.02071799,14.3648012 10.7795651,13.6363426 12.1023949,12.3135129 Z M11.2771818,3.23492487 C13.5527787,5.51052181 13.5527787,9.2127029 11.2771818,11.4884554 C10.1747718,12.5905543 8.70914368,13.1976808 7.15033878,13.1976808 C5.59153387,13.1976808 4.12590571,12.5905543 3.02349574,11.4884554 C0.747898804,9.2127029 0.747898804,5.51052181 3.02349574,3.23492487 C4.12590571,2.13282601 5.59168943,1.52569942 7.15033878,1.52569942 C8.70914368,1.52554386 10.1747718,2.13267045 11.2771818,3.23492487 Z" id="Shape"></path>
        </g>
    </g>
</svg>