<?xml version="1.0" encoding="UTF-8" standalone="no"?>
<svg width="24px" height="21px" viewBox="0 0 24 21" version="1.1" xmlns="http://www.w3.org/2000/svg" xmlns:xlink="http://www.w3.org/1999/xlink">
    <!-- Generator: Sketch 41.2 (35397) - http://www.bohemiancoding.com/sketch -->
    <title>TravelTimeWht-sym</title>
    <desc>Created with Sketch.</desc>
    <defs></defs>
    <g id="Symbols" stroke="none" stroke-width="1" fill="none" fill-rule="evenodd">
        <g id="TravelTimeWht-sym" fill="#FFFFFF">
            <path d="M20.4273719,4.00088949 C24.9555311,8.53855902 24.9555311,15.885493 20.4273719,20.4231626 C19.9928294,20.8544234 19.3168009,20.9253646 18.8021989,20.5937054 L16.0434175,18.7954816 C15.6991073,18.5708493 15.4834609,18.194676 15.4635998,17.7840488 C15.4437388,17.3734216 15.6220744,16.9781924 15.9430982,16.7213796 C16.3816149,16.3576097 17.0059858,16.3220185 17.4829998,16.6336002 L19.2887476,17.8098442 C22.3048684,13.9898365 21.7502159,8.46660699 18.0347561,5.32259656 C14.6659483,2.50638197 9.7640145,2.50638197 6.39520669,5.32259656 C2.67974683,8.46660699 2.12509434,13.9898365 5.14121516,17.8098442 L6.94947095,16.6336002 C7.43027748,16.316185 8.06239198,16.3518689 8.50442044,16.7213796 C8.82003866,16.9804066 8.99334389,17.3743224 8.97105209,17.7820145 C8.94876029,18.1897067 8.73353958,18.5623787 8.39156121,18.7854496 L5.63277984,20.5836735 C5.11841153,20.9163114 4.44171753,20.8453003 4.00760682,20.4131306 C-0.321456913,15.8457199 -0.224408792,8.66111499 4.22644419,4.2123015 C8.67729716,-0.236511983 15.8619458,-0.330267173 20.4273719,4.00088949 L20.4273719,4.00088949 Z M18.0723758,13.3656982 C17.9908589,13.8100994 18.2841313,14.2367238 18.7282449,14.3197932 C19.1723585,14.4028627 19.6000052,14.1110829 19.6846261,13.6672623 C19.769247,13.2234418 19.4789635,12.794778 19.0354413,12.7086067 C18.8204643,12.6668391 18.5977118,12.7127874 18.4168105,12.8362148 C18.2359092,12.9596423 18.1118874,13.1502952 18.0723758,13.3656982 L18.0723758,13.3656982 Z M6.69867264,9.92725345 C6.83926806,9.5936571 6.74450317,9.20733826 6.46549287,8.97667215 C6.18648257,8.74600604 5.78923609,8.72556443 5.48802285,8.92637326 C5.1868096,9.12718208 5.05289167,9.5017333 5.15850258,9.84799901 C5.2641135,10.1942647 5.58426746,10.4303242 5.94627772,10.4288501 C6.27492539,10.4275118 6.57103439,10.2301058 6.69867264,9.92725345 L6.69867264,9.92725345 Z M5.39702943,12.7311785 C4.98196588,12.8117996 4.69622696,13.1947648 4.73714164,13.6156015 C4.77805631,14.0364382 5.1322123,14.3571913 5.55503237,14.3563515 C5.60890472,14.3567188 5.66267791,14.3516775 5.71554328,14.3413036 C6.15925013,14.2530123 6.44765377,13.8220901 6.36009493,13.3782381 L6.36009493,13.3782381 C6.31826596,13.1646816 6.1932752,12.9765054 6.0126444,12.8551441 C5.83201361,12.7337828 5.61055421,12.6891878 5.39702943,12.7311785 L5.39702943,12.7311785 Z M7.99028392,5.88438476 L7.99028392,5.88438476 C7.61615174,6.13678695 7.5162606,6.64404509 7.76676221,7.01945246 C8.01726382,7.39485983 8.52400886,7.49732214 8.90068177,7.24872755 L8.90068177,7.24872755 C9.14604982,7.08679084 9.28596809,6.80590465 9.26741876,6.51250237 C9.24886942,6.21910008 9.07469049,5.95807159 8.81088183,5.82832581 C8.54707317,5.69858002 8.23399691,5.71996775 7.99028392,5.88438476 L7.99028392,5.88438476 Z M16.6704133,7.01548512 C16.8544838,6.7393862 16.8540342,6.37957261 16.6692742,6.10393459 C16.4845142,5.82829657 16.1518587,5.69116037 15.8265259,5.7565142 C15.501193,5.82186804 15.2473036,6.07683115 15.1833233,6.40243687 C15.1193429,6.7280426 15.2578817,7.06011643 15.534297,7.24371158 C15.7148735,7.36526092 15.9365662,7.40953259 16.1499772,7.36666195 C16.3633882,7.3237913 16.5507855,7.19734041 16.6704133,7.01548512 L16.6704133,7.01548512 Z M12.9686303,5.73390578 C13.072948,5.48175294 13.0450154,5.19422949 12.8941137,4.96687092 C12.743212,4.73951236 12.4891089,4.60210208 12.2162354,4.60029744 L12.2162354,4.60029744 C11.8039544,4.59757083 11.4537389,4.90134754 11.3981814,5.3098771 C11.3426238,5.71840666 11.5989971,6.10467581 11.9970334,6.2121475 C12.3950697,6.31961919 12.8110181,6.1148801 12.9686303,5.73390578 L12.9686303,5.73390578 Z M18.7746111,10.2482753 L14.6489789,12.8891814 C14.4208177,13.9400135 13.5421505,14.7245446 12.4722845,14.8326756 C11.4024186,14.9408067 10.3845402,14.3479589 9.95072645,13.3640324 C9.51691273,12.380106 9.76577195,11.2287529 10.5672176,10.5118216 C11.3686632,9.79489027 12.5405221,9.67534325 13.4702269,10.2156715 L18.2353947,8.98425182 C18.5635092,8.90354818 18.9021057,9.07062949 19.0376698,9.38013648 C19.1732339,9.68964347 19.0664451,10.0518036 18.784643,10.2382434 L18.7746111,10.2482753 Z M13.0238059,12.0038634 C12.8297975,11.5597274 12.3125487,11.3568718 11.8683383,11.5507098 C11.4241279,11.7445479 11.2210738,12.2617188 11.4147414,12.7060035 C11.608409,13.1502882 12.125502,13.3535407 12.569861,13.1600436 C13.0155698,12.9672206 13.2209356,12.4498784 13.0288219,12.0038634 L13.0238059,12.0038634 Z" id="Shape"></path>
        </g>
    </g>
</svg>