<?xml version="1.0" encoding="UTF-8" standalone="no"?>
<svg width="148px" height="55px" viewBox="0 0 148 55" version="1.1" xmlns="http://www.w3.org/2000/svg" xmlns:xlink="http://www.w3.org/1999/xlink">
    <!-- Generator: Sketch 41.1 (35376) - http://www.bohemiancoding.com/sketch -->
    <title>airplanner-logo-white150W</title>
    <desc>Created with Sketch.</desc>
    <defs></defs>
    <g id="Page-1" stroke="none" stroke-width="1" fill="none" fill-rule="evenodd">
        <g id="airplanner-logo-white150W">
            <g id="Group-5" transform="translate(1.000000, 0.000000)">
                <g id="Group-3" transform="translate(0.000000, 14.946969)" fill="#FFFFFF">
                    <path d="M15.134626,8.82357422 L15.134626,22.2659121 C15.134626,22.582204 15.1477928,22.9446164 15.1741269,23.3531601 C15.2004609,23.7617037 15.2728783,24.1504733 15.3913814,24.5194805 C15.5098845,24.8884877 15.6942198,25.1981856 15.944393,25.4485833 C16.1945662,25.6989811 16.5566535,25.8241781 17.0306658,25.8241781 C17.2413379,25.8241781 17.4717571,25.7978208 17.7219303,25.7451055 C17.9721034,25.6923902 18.176189,25.6396756 18.3341931,25.5869603 C18.3605271,25.7187486 18.3802773,25.8373563 18.3934443,25.9427869 C18.4066113,26.0482175 18.4131947,26.1668252 18.4131947,26.2986135 C18.4131947,27.0893432 18.1103581,27.7087389 17.5046757,28.156819 C16.8989933,28.6048992 16.2143191,28.8289359 15.4506326,28.8289359 C14.6342781,28.8289359 13.8969367,28.5455954 13.2385863,27.9789057 C12.5802359,27.4122161 12.1325643,26.4567654 11.8955581,25.1125249 C11.5005479,26.1404735 10.8553741,27.0168524 9.96001757,27.741688 C9.064661,28.4665236 7.9849825,28.8289359 6.72094969,28.8289359 C5.93092918,28.8289359 5.13433711,28.6642031 4.3311496,28.3347323 C3.52796208,28.0052616 2.81037088,27.4847057 2.17835448,26.773049 C1.54633807,26.0613922 1.02624904,25.1388881 0.618071777,24.0055088 C0.209894515,22.8721295 0.00580894528,21.5015519 0.00580894528,19.8937349 C0.00580894528,18.654925 0.14406046,17.3700085 0.420567638,16.0389468 C0.697074816,14.7078851 1.13157958,13.4954511 1.72409496,12.4016083 C2.31661034,11.3077655 3.08686878,10.4050293 4.03489339,9.69337256 C4.982918,8.98171581 6.11526374,8.62589278 7.43196459,8.62589278 C8.11664903,8.62589278 8.82107341,8.77085772 9.54525888,9.06079195 C10.2694443,9.35072618 10.815867,9.90422867 11.1845432,10.721316 L11.1845432,8.82357422 L15.134626,8.82357422 Z M7.55046707,25.8241781 C8.05081339,25.8241781 8.52481859,25.7055704 8.97249687,25.4683515 C9.42017516,25.2311325 9.80859609,24.9148454 10.1377713,24.5194805 C10.4669465,24.1241157 10.7236993,23.6694529 10.9080374,23.1554786 C11.0923756,22.6415043 11.1845432,22.0945911 11.1845432,21.5147227 L11.1845432,12.500449 C11.0002051,12.0523688 10.7237021,11.6570099 10.3550259,11.3143604 C9.98634961,10.9717108 9.45967718,10.8003886 8.77499274,10.8003886 C7.93230419,10.8003886 7.2212964,11.0837292 6.64194803,11.6504188 C6.06259966,12.2171084 5.58859446,12.9353438 5.21991823,13.8051465 C4.85124199,14.6749492 4.58132236,15.6435786 4.41015125,16.7110637 C4.23898014,17.7785488 4.15339587,18.7998927 4.15339587,19.775126 C4.15339587,21.9100962 4.48256615,23.451996 5.14091657,24.4008717 C5.79926699,25.3497473 6.60244246,25.8241781 7.55046707,25.8241781 Z" id="a"></path>
                    <path d="M19.1218861,2.91173133 C19.1218861,2.20007458 19.3720555,1.58067893 19.8724018,1.05352579 C20.3727481,0.526372649 20.9915882,0.262800032 21.7289407,0.262800032 C22.4399592,0.262800032 23.0587993,0.526372649 23.5854796,1.05352579 C24.11216,1.58067893 24.3754962,2.20007458 24.3754962,2.91173133 C24.3754962,3.64974573 24.11216,4.26914138 23.5854796,4.76993686 C23.0587993,5.27073235 22.4399592,5.52112633 21.7289407,5.52112633 C20.9915882,5.52112633 20.3727481,5.27073235 19.8724018,4.76993686 C19.3720555,4.26914138 19.1218861,3.64974573 19.1218861,2.91173133 Z M23.7829838,8.6049568 L23.7829838,22.0472947 C23.7829838,22.3635866 23.7895672,22.7259989 23.8027342,23.1345426 C23.8159012,23.5430863 23.8817352,23.9318559 24.0002383,24.3008631 C24.1187414,24.6698703 24.2899099,24.9795681 24.5137491,25.2299659 C24.7375882,25.4803636 25.0733419,25.6055606 25.5210202,25.6055606 C25.7316923,25.6055606 25.9884451,25.5792034 26.2912863,25.5264881 C26.5941275,25.4737727 26.8245467,25.4210582 26.9825508,25.3683429 C27.0088848,25.5001312 27.028635,25.6187389 27.0418021,25.7241695 C27.0549691,25.8296001 27.0615525,25.9482078 27.0615525,26.0799961 C27.0615525,26.5280763 26.9628014,26.9168459 26.7652963,27.2463166 C26.5677911,27.5757873 26.3110383,27.8393599 25.9950301,28.0370423 C25.6790219,28.2347248 25.323518,28.3796897 24.9285078,28.4719415 C24.5334975,28.5641933 24.1384932,28.6103185 23.7434829,28.6103185 C22.9534624,28.6103185 22.3082887,28.4455856 21.8079424,28.1161149 C21.307596,27.7866442 20.9060083,27.3517494 20.6031671,26.8114174 C20.3003259,26.2710854 20.0962403,25.6714577 19.9909043,25.0125163 C19.8855682,24.3535749 19.832901,23.6946433 19.832901,23.0357019 L19.832901,8.6049568 L23.7829838,8.6049568 Z" id="i"></path>
                    <path d="M32.5905066,8.6049568 L32.5905066,11.926005 C32.9065148,11.4515672 33.2159348,11.0034937 33.518776,10.5817712 C33.8216172,10.1600487 34.1573709,9.79104702 34.5260471,9.47475513 C34.8947234,9.15846325 35.3028945,8.90147994 35.7505728,8.70379752 C36.1982511,8.50611509 36.6985899,8.40727536 37.2516043,8.40727536 C38.1469608,8.40727536 38.8053014,8.6379014 39.2266457,9.0991604 C39.6479899,9.56041939 39.8586589,10.1205112 39.8586589,10.7794526 C39.8586589,11.1748175 39.7928249,11.5042833 39.6611548,11.7678598 C39.5294847,12.0314364 39.371483,12.2422945 39.1871448,12.4004404 C39.0028067,12.5585864 38.8053046,12.6706047 38.5946324,12.7364989 C38.3839603,12.802393 38.1996249,12.8353396 38.0416208,12.8353396 C37.8046147,12.8353396 37.6136959,12.7826251 37.4688588,12.6771945 C37.3240217,12.5717638 37.1791868,12.4597455 37.0343497,12.341136 C36.8895126,12.2225266 36.7249275,12.1105082 36.5405894,12.0050776 C36.3562513,11.8996469 36.1192487,11.8469324 35.8295745,11.8469324 C35.2238921,11.8469324 34.6445524,12.0577905 34.091538,12.479513 C33.5385237,12.9012355 33.0381849,13.349309 32.5905066,13.8237468 L32.5905066,28.3731008 L28.6404238,28.3731008 L28.6404238,8.6049568 L32.5905066,8.6049568 Z" id="r"></path>
                </g>
                <g id="Group-4" transform="translate(41.359690, 15.022082)" fill="#FFFFFF">
                    <path d="M4.1564797,6.976992 L4.1564797,10.0212862 C4.65682602,9.49413303 5.24274911,9.06582753 5.91426654,8.73635681 C6.58578398,8.4068861 7.36920923,8.24215321 8.2645658,8.24215321 C9.1862564,8.24215321 10.0420991,8.43983267 10.8321196,8.83519753 C11.6221401,9.23056239 12.3133977,9.83019009 12.9059131,10.6340986 C13.4984285,11.4380072 13.9658502,12.4527618 14.3081925,13.6783928 C14.6505347,14.9040239 14.8217032,16.3602626 14.8217032,18.0471526 C14.8217032,21.3418598 14.2028631,23.8985142 12.9651643,25.7171925 C11.7274655,27.5358708 10.0816142,28.4451964 8.02756084,28.4451964 C7.15853828,28.4451964 6.41461346,28.2804635 5.79576406,27.9509928 C5.17691466,27.6215221 4.63049201,27.1536807 4.1564797,26.5474545 L4.1564797,37.1036434 L0.166896087,38.0920506 L0.166896087,6.976992 L4.1564797,6.976992 Z M6.88203683,10.8120119 C6.30268845,10.8120119 5.78259942,10.9767448 5.32175413,11.3062155 C4.86090883,11.6356862 4.47248791,12.1035276 4.1564797,12.7097538 L4.1564797,24.5706401 C4.52515594,25.045078 4.93991049,25.3877224 5.40075578,25.5985836 C5.86160108,25.8094449 6.31585606,25.9148739 6.76353434,25.9148739 C7.42188477,25.9148739 8.00122445,25.7040158 8.50157077,25.2822933 C9.00191709,24.8605708 9.42983845,24.2873004 9.78534768,23.5624648 C10.1408569,22.8376292 10.4107765,21.9876075 10.5951146,21.0123742 C10.7794528,20.0371409 10.8716204,18.9960291 10.8716204,17.8890075 C10.8716204,16.5184093 10.7465357,15.3784577 10.4963626,14.4691186 C10.2461894,13.5597794 9.92360255,12.8349547 9.52859229,12.2946227 C9.13358204,11.7542908 8.69907728,11.3721105 8.22506497,11.1480704 C7.75105267,10.9240303 7.3033811,10.8120119 6.88203683,10.8120119 Z" id="p"></path>
                    <path d="M95.9007235,8.34215676 L95.9007235,11.663205 C96.2167317,11.1887671 96.5261517,10.7406937 96.8289929,10.3189712 C97.1318341,9.89724865 97.4675878,9.52824698 97.836264,9.2119551 C98.2049403,8.89566321 98.6131114,8.63867991 99.0607897,8.44099748 C99.508468,8.24331506 100.008807,8.14447532 100.561821,8.14447532 C101.457178,8.14447532 102.115518,8.37510136 102.536863,8.83636036 C102.958207,9.29761936 103.168876,9.85771117 103.168876,10.5166526 C103.168876,10.9120175 103.103042,11.2414832 102.971372,11.5050598 C102.839702,11.7686364 102.6817,11.9794945 102.497362,12.1376404 C102.313024,12.2957864 102.115521,12.4078047 101.904849,12.4736989 C101.694177,12.539593 101.509842,12.5725396 101.351838,12.5725396 C101.114832,12.5725396 100.923913,12.5198251 100.779076,12.4143944 C100.634239,12.3089638 100.489404,12.1969454 100.344567,12.078336 C100.19973,11.9597265 100.035144,11.8477082 99.8508063,11.7422775 C99.6664681,11.6368469 99.4294655,11.5841324 99.1397914,11.5841324 C98.534109,11.5841324 97.9547693,11.7949905 97.4017549,12.216713 C96.8487406,12.6384355 96.3484018,13.0865089 95.9007235,13.5609468 L95.9007235,28.1103008 L91.9506407,28.1103008 L91.9506407,8.34215676 L95.9007235,8.34215676 Z" id="r"></path>
                    <path d="M89.7265749,13.046975 C89.7265749,14.892011 88.9694833,16.4339108 87.4552773,17.6727207 C85.9410713,18.9115306 83.840965,19.6758912 81.1548952,19.9658254 C81.2602313,21.0201317 81.4511501,21.8767427 81.7276572,22.5356841 C82.0041644,23.1946256 82.3399181,23.7151815 82.7349284,24.0973675 C83.1299386,24.4795536 83.5841936,24.7431262 84.0977069,24.8880933 C84.6112202,25.0330604 85.1444761,25.1055429 85.6974904,25.1055429 C86.540179,25.1055429 87.3367711,24.9605779 88.0872905,24.6706437 C88.83781,24.3807095 89.4632335,23.8799215 89.9635799,23.1682648 C89.9899139,23.3527684 90.0096641,23.5306799 90.0228311,23.7020046 C90.0359981,23.8733294 90.0425815,24.0248837 90.0425815,24.156672 C90.0425815,24.7628981 89.8911632,25.3032219 89.588322,25.7776598 C89.2854808,26.2520976 88.8773097,26.6672245 88.3637963,27.0230528 C87.850283,27.3788812 87.2577765,27.6490431 86.5862591,27.8335467 C85.9147416,28.0180503 85.2103173,28.1103008 84.4729648,28.1103008 C83.5776082,28.1103008 82.6822651,27.9455679 81.7869085,27.6160972 C80.8915519,27.2866264 80.081793,26.7594812 79.3576076,26.0346456 C78.6334221,25.3098101 78.047499,24.367538 77.5998207,23.207801 C77.1521424,22.0480641 76.9283067,20.6379506 76.9283067,18.9774182 C76.9283067,17.8703966 77.0533914,16.6711412 77.3035645,15.379616 C77.5537377,14.0880908 77.9750756,12.8888354 78.567591,11.7818138 C79.1601064,10.6747922 79.9369482,9.75228806 80.8981399,9.01427366 C81.8593315,8.27625926 83.0509279,7.9072576 84.4729648,7.9072576 C85.1313152,7.9072576 85.7699055,7.97974007 86.3887549,8.12470718 C87.0076043,8.26967429 87.5671938,8.53324691 88.0675401,8.91543294 C88.5678864,9.29761897 88.9694742,9.81817489 89.2723154,10.4771163 C89.5751566,11.1360577 89.7265749,11.9926687 89.7265749,13.046975 Z M81.1153944,18.4239102 C82.9851096,18.133976 84.4663758,17.4750444 85.5592376,16.4470958 C86.6520993,15.4191472 87.1985219,14.1539986 87.1985219,12.6516122 C87.1985219,11.6500212 87.0273534,10.9317858 86.6850111,10.4968845 C86.3426689,10.0619831 85.8554969,9.84453571 85.2234805,9.84453571 C84.5387961,9.84453571 83.9397062,10.1081083 83.4261928,10.6352615 C82.9126795,11.1624146 82.4847582,11.8411141 82.1424159,12.6713803 C81.8000737,13.5016465 81.5433209,14.4241507 81.3721498,15.4389205 C81.2009787,16.4536903 81.1153944,17.4486769 81.1153944,18.4239102 Z" id="e"></path>
                    <path d="M46.4142758,8.10493904 L46.4142758,11.1096969 C46.8092861,10.3980402 47.2108738,9.82476974 47.6190511,9.3898684 C48.0272283,8.95496705 48.4419829,8.6320906 48.8633272,8.42122934 C49.2846714,8.21036808 49.6862592,8.07199246 50.0681024,8.00609832 C50.4499457,7.94020417 50.812033,7.9072576 51.1543752,7.9072576 C52.3394059,7.9072576 53.2939997,8.13129432 54.0181852,8.57937449 C54.7423707,9.02745466 55.2887933,9.60072511 55.6574696,10.299203 C56.0261458,10.9976809 56.2697318,11.7686308 56.3882349,12.6120759 C56.506738,13.4555209 56.5659886,14.272596 56.5659886,15.0633257 C56.5659886,15.9331284 56.5330716,16.9874189 56.4672365,18.2262288 C56.4014015,19.4650386 56.3684845,20.6642941 56.3684845,21.824031 C56.3684845,22.0876075 56.3816513,22.4038947 56.4079853,22.7729019 C56.4343193,23.1419091 56.5133202,23.4977321 56.6449903,23.8403817 C56.7766603,24.1830312 56.9741625,24.4795504 57.2375027,24.7299481 C57.5008428,24.9803459 57.8826804,25.1055429 58.3830267,25.1055429 C58.5673648,25.1055429 58.7912006,25.0857749 59.0545408,25.0462384 C59.3178809,25.0067019 59.5153831,24.9210408 59.6470532,24.7892526 L59.6470532,25.0660066 C59.6470532,25.7776633 59.5548855,26.3311658 59.3705474,26.7265307 C59.1862093,27.1218955 58.9623735,27.425004 58.6990333,27.6358653 C58.4356931,27.8467266 58.1460233,27.9785129 57.8300151,28.0312282 C57.5140069,28.0839435 57.2375039,28.1103008 57.0004977,28.1103008 C56.1841432,28.1103008 55.4863022,27.9455679 54.9069538,27.6160972 C54.3276055,27.2866264 53.8470169,26.8451423 53.4651736,26.2916315 C53.0833304,25.7381207 52.8068273,25.0989571 52.6356562,24.3741215 C52.4644851,23.649286 52.3789008,22.8783361 52.3789008,22.0612487 C52.3789008,21.8240298 52.3854843,21.3825456 52.3986513,20.736783 C52.4118183,20.0910204 52.4249851,19.3991423 52.4381521,18.6611279 C52.4513191,17.9231135 52.4644859,17.2246461 52.4776529,16.5657047 C52.4908199,15.9067632 52.4974033,15.4455112 52.4974033,15.1819346 C52.4974033,14.3384896 52.4315693,13.6400221 52.2998992,13.0865113 C52.1682291,12.5330005 51.9838938,12.0981057 51.7468876,11.7818138 C51.5098814,11.4655219 51.2399618,11.2414852 50.9371206,11.1096969 C50.6342794,10.9779086 50.3116926,10.9120155 49.9693503,10.9120155 C49.1529958,10.9120155 48.4485714,11.2414813 47.8560561,11.9004227 C47.2635407,12.5593641 46.7829521,13.6663691 46.4142758,15.2214709 L46.4142758,27.873083 L42.464193,27.873083 L42.464193,8.10493904 L46.4142758,8.10493904 Z" id="n"></path>
                    <path d="M64.1110483,8.10493904 L64.1110483,11.1096969 C64.5060585,10.3980402 64.9076463,9.82476974 65.3158235,9.3898684 C65.7240008,8.95496705 66.1387553,8.6320906 66.5600996,8.42122934 C66.9814439,8.21036808 67.3830316,8.07199246 67.7648748,8.00609832 C68.1467181,7.94020417 68.5088054,7.9072576 68.8511476,7.9072576 C70.0361784,7.9072576 70.9907722,8.13129432 71.7149576,8.57937449 C72.4391431,9.02745466 72.9855658,9.60072511 73.354242,10.299203 C73.7229182,10.9976809 73.9665042,11.7686308 74.0850073,12.6120759 C74.2035104,13.4555209 74.262761,14.272596 74.262761,15.0633257 C74.262761,15.9331284 74.229844,16.9874189 74.164009,18.2262288 C74.0981739,19.4650386 74.0652569,20.6642941 74.0652569,21.824031 C74.0652569,22.0876075 74.0784237,22.4038947 74.1047577,22.7729019 C74.1310917,23.1419091 74.2100926,23.4977321 74.3417627,23.8403817 C74.4734328,24.1830312 74.6709349,24.4795504 74.9342751,24.7299481 C75.1976153,24.9803459 75.5794528,25.1055429 76.0797991,25.1055429 C76.2641372,25.1055429 76.487973,25.0857749 76.7513132,25.0462384 C77.0146534,25.0067019 77.2121555,24.9210408 77.3438256,24.7892526 L77.3438256,25.0660066 C77.3438256,25.7776633 77.2516579,26.3311658 77.0673198,26.7265307 C76.8829817,27.1218955 76.6591459,27.425004 76.3958057,27.6358653 C76.1324656,27.8467266 75.8427957,27.9785129 75.5267875,28.0312282 C75.2107793,28.0839435 74.9342763,28.1103008 74.6972701,28.1103008 C73.8809156,28.1103008 73.1830746,27.9455679 72.6037263,27.6160972 C72.0243779,27.2866264 71.5437893,26.8451423 71.161946,26.2916315 C70.7801028,25.7381207 70.5035998,25.0989571 70.3324287,24.3741215 C70.1612575,23.649286 70.0756733,22.8783361 70.0756733,22.0612487 C70.0756733,21.8240298 70.0822567,21.3825456 70.0954237,20.736783 C70.1085907,20.0910204 70.1217575,19.3991423 70.1349245,18.6611279 C70.1480915,17.9231135 70.1612583,17.2246461 70.1744253,16.5657047 C70.1875924,15.9067632 70.1941758,15.4455112 70.1941758,15.1819346 C70.1941758,14.3384896 70.1283417,13.6400221 69.9966716,13.0865113 C69.8650015,12.5330005 69.6806662,12.0981057 69.44366,11.7818138 C69.2066539,11.4655219 68.9367343,11.2414852 68.6338931,11.1096969 C68.3310519,10.9779086 68.008465,10.9120155 67.6661228,10.9120155 C66.8497682,10.9120155 66.1453439,11.2414813 65.5528285,11.9004227 C64.9603131,12.5593641 64.4797245,13.6663691 64.1110483,15.2214709 L64.1110483,27.873083 L60.1609655,27.873083 L60.1609655,8.10493904 L64.1110483,8.10493904 Z" id="n-copy"></path>
                    <path d="M38.671712,8.10493904 L38.671712,21.5472769 C38.671712,21.8635688 38.6848788,22.2259812 38.7112129,22.6345249 C38.7375469,23.0430686 38.8099643,23.4318382 38.9284674,23.8008454 C39.0469705,24.1698526 39.2313058,24.4795504 39.481479,24.7299481 C39.7316522,24.9803459 40.0937395,25.1055429 40.5677518,25.1055429 C40.7784239,25.1055429 41.0088431,25.0791856 41.2590163,25.0264703 C41.5091894,24.973755 41.713275,24.9210405 41.8712791,24.8683251 C41.8976131,25.0001134 41.9173633,25.1187211 41.9305303,25.2241517 C41.9436973,25.3295824 41.9502807,25.44819 41.9502807,25.5799783 C41.9502807,26.370708 41.6474441,26.9901037 41.0417617,27.4381839 C40.4360793,27.886264 39.7514051,28.1103008 38.9877187,28.1103008 C38.1713641,28.1103008 37.4340227,27.8269602 36.7756723,27.2602706 C36.1173219,26.6935809 35.6696503,25.7381302 35.4326441,24.3938897 C35.0376339,25.4218383 34.3924602,26.2982173 33.4971036,27.0230528 C32.601747,27.7478884 31.5220685,28.1103008 30.2580357,28.1103008 C29.4680152,28.1103008 28.6714231,27.9455679 27.8682356,27.6160972 C27.0650481,27.2866264 26.3474569,26.7660705 25.7154405,26.0544138 C25.0834241,25.342757 24.563335,24.4202529 24.1551578,23.2868736 C23.7469805,22.1534944 23.542895,20.7829168 23.542895,19.1750997 C23.542895,17.9362898 23.6811465,16.6513733 23.9576536,15.3203116 C24.2341608,13.9892499 24.6686656,12.7768159 25.261181,11.6829731 C25.8536963,10.5891303 26.6239548,9.68639411 27.5719794,8.97473737 C28.520004,8.26308063 29.6523498,7.9072576 30.9690506,7.9072576 C31.653735,7.9072576 32.3581594,8.05222254 33.0823449,8.34215676 C33.8065304,8.63209099 34.352953,9.18559349 34.7216292,10.0026809 L34.7216292,8.10493904 L38.671712,8.10493904 Z M31.0875531,25.1055429 C31.5878994,25.1055429 32.0619046,24.9869352 32.5095829,24.7497163 C32.9572612,24.5124974 33.3456821,24.1962102 33.6748573,23.8008454 C34.0040325,23.4054805 34.2607853,22.9508177 34.4451234,22.4368434 C34.6294616,21.9228691 34.7216292,21.3759559 34.7216292,20.7960875 L34.7216292,11.7818138 C34.5372911,11.3337336 34.2607881,10.9383747 33.8921119,10.5957252 C33.5234356,10.2530756 32.9967632,10.0817534 32.3120787,10.0817534 C31.4693902,10.0817534 30.7583824,10.365094 30.179034,10.9317836 C29.5996857,11.4984733 29.1256805,12.2167086 28.7570042,13.0865113 C28.388328,13.956314 28.1184084,14.9249434 27.9472373,15.9924285 C27.7760662,17.0599136 27.6904819,18.0812575 27.6904819,19.0564908 C27.6904819,21.191461 28.0196522,22.7333608 28.6780026,23.6822365 C29.336353,24.6311122 30.1395285,25.1055429 31.0875531,25.1055429 Z" id="a"></path>
                    <path d="M20.6798452,0.19768144 L20.6798452,21.5472769 C20.6798452,21.8635688 20.6864286,22.2259812 20.6995956,22.6345249 C20.7127626,23.0430686 20.7785967,23.4318382 20.8970997,23.8008454 C21.0156028,24.1698526 21.1867714,24.4795504 21.4106105,24.7299481 C21.6344496,24.9803459 21.9702033,25.1055429 22.4178816,25.1055429 C22.6285537,25.1055429 22.8853066,25.0791856 23.1881478,25.0264703 C23.490989,24.973755 23.7214081,24.9210405 23.8794122,24.8683251 C23.9057463,25.0001134 23.9254965,25.1187211 23.9386635,25.2241517 C23.9518305,25.3295824 23.9584139,25.44819 23.9584139,25.5799783 C23.9584139,26.0280585 23.8596628,26.4168281 23.6621577,26.7462988 C23.4646526,27.0757695 23.2078997,27.3393421 22.8918915,27.5370246 C22.5758833,27.734707 22.2203794,27.8796719 21.8253692,27.9719237 C21.4303589,28.0641755 21.0353546,28.1103008 20.6403444,28.1103008 C19.8503238,28.1103008 19.2051501,27.9455679 18.7048038,27.6160972 C18.2044575,27.2866264 17.8028697,26.8517316 17.5000285,26.3113997 C17.1971873,25.7710677 16.9931018,25.17144 16.8877657,24.5124985 C16.7824296,23.8535571 16.7297624,23.1946256 16.7297624,22.5356841 L16.7297624,0.751189472 L20.6798452,0.19768144 Z" id="l"></path>
                </g>
                <path d="M106.458735,16.0977697 L102.68941,12.3291043 C103.00049,11.9570901 103.303491,11.5850759 103.590331,11.2171054 C104.155932,10.4892515 104.087252,9.44599434 103.432771,8.79092589 L102.94797,8.30569 L103.562051,7.69105786 L105.953735,10.0848883 C106.155735,10.2870699 106.507215,10.3275062 106.757696,10.0848883 C106.979896,9.86248849 106.979896,9.5026052 106.757696,9.28020541 L104.366012,6.88637501 L104.458932,6.79337146 C104.681133,6.57097168 104.681133,6.21108839 104.458932,5.98868861 C104.236732,5.76628882 103.877172,5.76628882 103.654971,5.98868861 L103.562051,6.08169215 L101.170368,3.68786175 C100.948168,3.46546196 100.588607,3.46546196 100.366407,3.68786175 C100.144206,3.91026153 100.144206,4.27014482 100.366407,4.4925446 L102.75809,6.88637501 L102.144009,7.50100714 L101.659209,7.01577125 C101.004728,6.36070279 99.9624061,6.29196104 99.2352051,6.85806958 C98.8675646,7.14516748 98.4958841,7.44439628 98.1242035,7.75575598 L94.3548782,3.98304691 C93.1832766,2.85082983 91.4985942,2.9964006 90.5370728,3.98304691 C89.5917115,4.92925691 89.4745513,6.40518275 90.2663924,7.48483261 L93.6559572,12.1309663 C92.4520355,13.5785867 91.4985942,15.0504689 90.7673531,16.3767803 L89.5593914,15.8955881 C88.7958304,15.5923157 87.9272291,15.7702355 87.3454683,16.3525186 C86.5455472,17.1531578 86.5455472,18.4592511 87.3454683,19.2639339 L88.8039104,20.7236852 C88.7392703,20.9096923 88.7069502,21.0269577 88.6988702,21.0552631 C88.56959,21.4474954 88.9331905,21.8963386 89.4099112,21.7669424 C89.4381913,21.7588551 89.5553514,21.7224624 89.7411917,21.6577643 L91.1996338,23.1175156 C91.8581547,23.8211077 93.1671165,24.0273329 94.1084379,23.1175156 C94.6901987,22.5352326 94.8679589,21.6658516 94.5649585,20.9016051 L94.0841978,19.692559 C95.4052797,18.9566178 96.8798818,18.0063642 98.3262038,16.8013618 L102.96817,20.1939694 C104.119572,20.9986522 105.549734,20.8409506 106.470855,19.923046 C107.513177,18.8676579 107.513177,17.1531578 106.458735,16.0977697 Z M91.1794337,6.80954599 C90.7229131,6.18278296 90.7875532,5.33362015 91.3369939,4.78368614 C92.0318749,4.10839952 93.0216763,4.24183939 93.5428371,4.78368614 L97.2515623,8.49574072 C96.302161,9.32468537 95.3567996,10.2466336 94.4154783,11.2454108 L91.1794337,6.80954599 Z M89.236191,19.5469882 L88.1453894,18.4511638 C87.7898689,18.0953241 87.7898689,17.5130411 88.1453894,17.1531578 C88.4039498,16.8943653 88.7917903,16.8134927 89.1311508,16.9509762 L90.2219524,17.3836448 C89.8017918,18.2166331 89.4785913,18.9525742 89.236191,19.5469882 Z M93.2923567,22.3087891 C92.9449162,22.6565415 92.3429554,22.6565415 91.9955149,22.3087891 L90.9047133,21.2170084 C91.4985942,20.9784341 92.2338752,20.6508998 93.0661164,20.2344057 L93.498397,21.3261865 C93.6317172,21.6658516 93.5509171,22.0499967 93.2923567,22.3087891 Z M90.1815523,20.2707984 C90.8764333,18.503731 92.5247556,14.9291599 95.4577998,11.7993884 L96.4799212,12.8224274 C96.7021215,13.0448272 97.061682,13.0448272 97.2838823,12.8224274 C97.5060827,12.6000276 97.5060827,12.2401444 97.2838823,12.0177446 L96.2577209,10.9866183 C96.5364813,10.7156949 96.8152417,10.4447716 97.0980421,10.1819354 L98.9241247,12.0096573 C99.146325,12.2320571 99.5058855,12.2320571 99.7280858,12.0096573 C99.9502861,11.7872575 99.9502861,11.4273742 99.7280858,11.2049745 L97.9383633,9.41364528 C98.6090042,8.81518768 99.2796452,8.25716641 99.9260461,7.75171235 C100.245207,7.5090944 100.641127,7.60209795 100.847167,7.81641047 L102.62477,9.59560874 C102.87525,9.84631396 102.90353,10.2425899 102.68941,10.5135133 C101.679409,11.815563 100.451247,13.1944416 99.142285,14.5086222 C95.9062404,17.7516154 92.0399549,19.5389009 90.1815523,20.2707984 Z M105.654774,19.1143195 C105.109373,19.6602099 104.256932,19.7289516 103.630731,19.2720212 L99.1988451,16.0330716 C100.212886,15.0706871 101.142088,14.1204334 101.946049,13.1944416 L105.654774,16.9064962 C106.260775,17.5170847 106.260775,18.5077746 105.654774,19.1143195 Z" id="Shape-Copy-3" fill="#FFFFFF" transform="translate(96.998308, 13.456267) rotate(22.000000) translate(-96.998308, -13.456267) "></path>
                <path d="M24.1652124,16.7687444 C40.4823233,7.64869088 45.232368,7.42090046 47.892841,11.3416779 C49.644711,13.923434 48.6570003,15.759708 39.2699862,24.0632811 C29.8829722,32.3668542 35.7630219,38.0273545 49.644711,32.1011485 C63.5264002,26.1749425 85.5096822,17.7992953 85.5096822,17.7992953" id="Path-4-Copy" stroke="#FFFFFF" stroke-width="4" stroke-linejoin="round" stroke-dasharray="1" opacity="0.501865672"></path>
            </g>
        </g>
    </g>
</svg>